<svg width="32" height="33" viewBox="0 0 32 33" fill="none" xmlns="http://www.w3.org/2000/svg">
<g clip-path="url(#clip0_1_1523)">
<path d="M16 0.630005C13.7917 0.630005 11.7188 1.04667 9.78125 1.88C7.84375 2.73417 6.15104 3.88521 4.70312 5.33313C3.25521 6.78105 2.10417 8.47375 1.25 10.4113C0.416667 12.3488 0 14.4217 0 16.63C0 18.8383 0.416667 20.9113 1.25 22.8488C2.10417 24.7863 3.25521 26.479 4.70312 27.9269C6.15104 29.3748 7.84375 30.5258 9.78125 31.38C11.7188 32.2133 13.7917 32.63 16 32.63C18.2083 32.63 20.2812 32.2133 22.2188 31.38C24.1562 30.5258 25.849 29.3748 27.2969 27.9269C28.7448 26.479 29.8958 24.7863 30.75 22.8488C31.5833 20.9113 32 18.8383 32 16.63C32 14.4217 31.5833 12.3488 30.75 10.4113C29.8958 8.47375 28.7448 6.78105 27.2969 5.33313C25.849 3.88521 24.1562 2.73417 22.2188 1.88C20.2812 1.04667 18.2083 0.630005 16 0.630005ZM18.25 26.38V29.4425H13.9688V26.3488C12.6146 26.0571 11.4271 25.4633 10.4062 24.5675C9.38542 23.6717 8.83333 22.4529 8.75 20.9113H11.875C11.9583 21.7446 12.3229 22.4477 12.9688 23.0206C13.6146 23.5935 14.6667 23.88 16.125 23.88C17.6875 23.88 18.7188 23.5779 19.2188 22.9738C19.7188 22.3696 19.9688 21.8279 19.9688 21.3488C19.9688 20.6821 19.7031 20.0519 19.1719 19.4581C18.6406 18.8644 17.4792 18.3488 15.6875 17.9113C13.7083 17.4321 12.099 16.7446 10.8594 15.8488C9.61979 14.9529 9 13.6925 9 12.0675C9 10.6925 9.48438 9.5623 10.4531 8.67688C11.4219 7.79146 12.5938 7.20292 13.9688 6.91125V3.8175H18.25V6.9425C19.75 7.3175 20.875 8.01021 21.625 9.02063C22.375 10.031 22.7708 11.1508 22.8125 12.38H19.6875C19.6458 11.4842 19.3594 10.7602 18.8281 10.2081C18.2969 9.65605 17.3958 9.38 16.125 9.38C14.9167 9.38 13.974 9.6248 13.2969 10.1144C12.6198 10.604 12.2812 11.2342 12.2812 12.005C12.2812 12.6717 12.5885 13.2446 13.2031 13.7238C13.8177 14.2029 14.9375 14.6508 16.5625 15.0675C18.1667 15.4842 19.6823 16.1248 21.1094 16.9894C22.5365 17.854 23.25 19.2967 23.25 21.3175C23.25 22.7758 22.7656 23.9165 21.7969 24.7394C20.8281 25.5623 19.6458 26.1092 18.25 26.38Z" fill="#4AC2E4"/>
</g>
<defs>
<clipPath id="clip0_1_1523">
<rect width="32" height="32" fill="white" transform="matrix(1 0 0 -1 0 32.63)"/>
</clipPath>
</defs>
</svg>
