<svg width="196" height="42" viewBox="0 0 196 42" fill="none" xmlns="http://www.w3.org/2000/svg">
<path d="M20.1571 11.4259C23.2911 11.4259 25.8317 8.86811 25.8317 5.71294C25.8317 2.55777 23.2911 0 20.1571 0C17.0231 0 14.4824 2.55777 14.4824 5.71294C14.4824 8.86811 17.0231 11.4259 20.1571 11.4259Z" fill="#085C60"/>
<path d="M4.61918 17.7404C7.17028 17.7404 9.23835 15.6583 9.23835 13.09C9.23835 10.5217 7.17028 8.4397 4.61918 8.4397C2.06808 8.4397 0 10.5217 0 13.09C0 15.6583 2.06808 17.7404 4.61918 17.7404Z" fill="#085C60"/>
<path d="M17.3172 39.7144C14.4368 37.9662 6.56172 32.6425 2.74493 24.6406C1.18604 21.373 2.34397 20.3673 3.85094 18.6192C4.90085 18.923 6.06156 18.8558 7.12306 18.3424C8.1855 17.8291 8.96332 16.9592 9.38421 15.9447C9.8751 15.9251 10.3294 15.8976 10.7563 15.8971C10.6932 16.3862 10.6617 16.9191 10.6617 17.5043C10.6617 22.289 11.7682 27.4331 13.9496 32.7937C15.0603 35.5218 16.2859 37.8897 17.32 39.698C17.3191 39.7027 17.3177 39.7092 17.3172 39.7144Z" fill="#085C60"/>
<path d="M11.9805 17.5032C11.9805 13.0498 13.7938 12.5561 16.386 11.4263C17.3886 12.3246 18.7088 12.8715 20.1573 12.8715C21.6059 12.8715 22.9256 12.3251 23.9287 11.4263C26.5208 12.5561 28.3342 13.0503 28.3342 17.5032C28.3342 28.4092 22.425 38.5214 20.1573 42C17.8901 38.5214 11.9805 28.4097 11.9805 17.5032Z" fill="#085C60"/>
<path d="M37.5692 24.6405C33.7529 32.6429 25.8778 37.9662 22.9969 39.7143C22.9965 39.7083 22.9955 39.7027 22.9941 39.6966C24.0274 37.8883 25.2539 35.5204 26.3645 32.7922C28.5464 27.4316 29.6524 22.2876 29.6524 17.5028C29.6524 16.9176 29.6204 16.3847 29.5579 15.8956C29.9848 15.8956 30.4386 15.9236 30.9299 15.9432C31.3508 16.9582 32.1287 17.8276 33.1911 18.341C34.2535 18.8543 35.4133 18.9215 36.4632 18.6177C37.9702 20.3672 39.1281 21.3734 37.5692 24.6405Z" fill="#085C60"/>
<path d="M35.6963 17.7404C38.2474 17.7404 40.3155 15.6583 40.3155 13.09C40.3155 10.5217 38.2474 8.4397 35.6963 8.4397C33.1452 8.4397 31.0771 10.5217 31.0771 13.09C31.0771 15.6583 33.1452 17.7404 35.6963 17.7404Z" fill="#085C60"/>
<path d="M63.6322 30.3175C63.2671 30.8204 62.6379 31.2701 61.7445 31.6666C60.8511 32.0631 59.8761 32.2614 58.8194 32.2614C57.1863 32.2614 55.7693 31.8939 54.5685 31.1589C53.3677 30.4239 52.4503 29.4229 51.8163 28.156C51.1822 26.889 50.8652 25.4819 50.8652 23.9345C50.8652 22.3871 51.1822 20.9799 51.8163 19.713C52.4503 18.446 53.3677 17.4451 54.5685 16.71C55.7693 15.975 57.1863 15.6075 58.8194 15.6075C59.9145 15.6075 60.8799 15.7961 61.7157 16.1733C62.5515 16.5505 63.1903 17.0292 63.6322 17.6095V9.97886H67.8974V31.9132H63.6322V30.3175ZM62.6235 20.6704C61.8358 19.829 60.7791 19.4083 59.4534 19.4083C58.1085 19.4083 57.047 19.829 56.2689 20.6704C55.4907 21.5118 55.1017 22.5998 55.1017 23.9345C55.1017 25.2304 55.5003 26.3039 56.2977 27.155C57.095 28.0061 58.1469 28.4316 59.4534 28.4316C60.7983 28.4316 61.8598 28.0302 62.6379 27.2275C63.416 26.4248 63.8051 25.3271 63.8051 23.9345C63.8051 22.5998 63.4112 21.5118 62.6235 20.6704ZM79.7134 20.1192C78.8872 20.3223 78.1283 20.801 77.4366 21.5553C76.745 22.3097 76.3991 23.4122 76.3991 24.8629V31.9132H72.1051V15.9557H76.3991V18.0737C77.11 17.1259 77.9794 16.4828 79.0073 16.1443C80.0352 15.8058 80.9718 15.6462 81.8172 15.6656V19.9016C81.2408 19.8435 80.5395 19.9161 79.7134 20.1192ZM87.9701 31.5361C86.654 31.0138 85.5252 30.1289 84.5838 28.8813C83.6424 27.6337 83.1717 26.0041 83.1717 23.9925C83.1717 21.9809 83.6472 20.3561 84.5982 19.1182C85.5493 17.8803 86.6876 17.0002 88.0133 16.4779C89.339 15.9557 90.5974 15.6946 91.7886 15.6946C93.172 15.6946 94.488 16.004 95.7369 16.623C96.9857 17.242 98.0088 18.1511 98.8061 19.3503C99.6035 20.5495 100.021 21.9712 100.06 23.6153C100.06 24.1182 100.05 24.5534 100.031 24.9209C100.012 25.2884 99.9925 25.5205 99.9733 25.6173H87.4657C87.6963 26.7391 88.2727 27.5031 89.1949 27.9093C90.1171 28.3155 90.9817 28.5186 91.7886 28.5186C92.8261 28.5186 93.6523 28.33 94.2671 27.9529C94.8819 27.5757 95.4103 27.1453 95.8522 26.6618L99.1952 28.6057C97.3892 31.0815 94.9203 32.3194 91.7886 32.3194C90.559 32.3194 89.2862 32.0583 87.9701 31.5361ZM88.8491 20.3803C88.0998 20.9702 87.6771 21.6907 87.581 22.5418H95.5063C95.4487 22.0389 95.2566 21.5553 94.9299 21.0911C94.6033 20.6269 94.1662 20.2449 93.6187 19.9451C93.0711 19.6453 92.4515 19.4954 91.7598 19.4954C90.5686 19.4954 89.5984 19.7903 88.8491 20.3803ZM115.565 30.3175C115.2 30.8204 114.57 31.2701 113.677 31.6666C112.783 32.0631 111.808 32.2614 110.752 32.2614C109.119 32.2614 107.702 31.8939 106.501 31.1589C105.3 30.4239 104.383 29.4229 103.749 28.156C103.115 26.889 102.798 25.4819 102.798 23.9345C102.798 22.3871 103.115 20.9799 103.749 19.713C104.383 18.446 105.3 17.4451 106.501 16.71C107.702 15.975 109.119 15.6075 110.752 15.6075C111.847 15.6075 112.812 15.7961 113.648 16.1733C114.484 16.5505 115.123 17.0292 115.565 17.6095V15.9557H119.83V31.9132H115.565V30.3175ZM114.556 20.6704C113.768 19.829 112.711 19.4083 111.386 19.4083C110.041 19.4083 108.979 19.829 108.201 20.6704C107.423 21.5118 107.034 22.5998 107.034 23.9345C107.034 25.2304 107.433 26.3039 108.23 27.155C109.027 28.0061 110.079 28.4316 111.386 28.4316C112.731 28.4316 113.792 28.0302 114.57 27.2275C115.348 26.4248 115.737 25.3271 115.737 23.9345C115.737 22.5998 115.344 21.5118 114.556 20.6704ZM147.741 17.4644C148.827 18.6636 149.37 20.3368 149.37 22.4838V31.9132H145.018V22.4838C145.018 21.3426 144.734 20.5205 144.168 20.0176C143.601 19.5147 142.856 19.2633 141.934 19.2633C141.166 19.2633 140.474 19.5534 139.859 20.1337C139.244 20.7139 138.927 21.6811 138.908 23.035V31.9132H134.556V22.4838C134.556 21.3426 134.273 20.5205 133.706 20.0176C133.14 19.5147 132.405 19.2633 131.502 19.2633C130.675 19.2633 129.96 19.5727 129.355 20.1917C128.749 20.8107 128.447 21.9035 128.447 23.4702L128.418 31.9132H124.124V15.9557H128.418V17.4064C128.975 16.9035 129.648 16.4876 130.435 16.1588C131.223 15.83 131.944 15.6656 132.597 15.6656C134.825 15.6656 136.526 16.3909 137.698 17.8416C138.293 17.1646 139.033 16.6327 139.917 16.2458C140.801 15.859 141.761 15.6656 142.799 15.6656C145.008 15.6656 146.656 16.2652 147.741 17.4644ZM153.837 31.9132V9.97886H158.102V17.6095C158.544 17.0292 159.183 16.5505 160.018 16.1733C160.854 15.7961 161.82 15.6075 162.915 15.6075C164.548 15.6075 165.965 15.975 167.166 16.71C168.366 17.4451 169.284 18.446 169.918 19.713C170.552 20.9799 170.869 22.3871 170.869 23.9345C170.869 25.4819 170.552 26.889 169.918 28.156C169.284 29.4229 168.366 30.4239 167.166 31.1589C165.965 31.8939 164.548 32.2614 162.915 32.2614C161.858 32.2614 160.883 32.0631 159.99 31.6666C159.096 31.2701 158.467 30.8204 158.102 30.3175V31.9132H153.837ZM159.096 27.2275C159.874 28.0302 160.936 28.4316 162.281 28.4316C163.587 28.4316 164.639 28.0061 165.436 27.155C166.234 26.3039 166.632 25.2304 166.632 23.9345C166.632 22.5998 166.243 21.5118 165.465 20.6704C164.687 19.829 163.626 19.4083 162.281 19.4083C160.955 19.4083 159.898 19.829 159.111 20.6704C158.323 21.5118 157.929 22.5998 157.929 23.9345C157.929 25.3271 158.318 26.4248 159.096 27.2275ZM178.419 13.5911C177.958 14.0456 177.401 14.2729 176.748 14.2729C176.075 14.2729 175.504 14.0456 175.033 13.5911C174.562 13.1365 174.327 12.5804 174.327 11.9228C174.327 11.2845 174.562 10.7381 175.033 10.2835C175.504 9.82896 176.075 9.60168 176.748 9.60168C177.401 9.60168 177.958 9.82896 178.419 10.2835C178.881 10.7381 179.111 11.2845 179.111 11.9228C179.111 12.5804 178.881 13.1365 178.419 13.5911ZM174.586 15.9847H178.909V31.9132H174.586V15.9847ZM183.203 9.97886H187.526V31.9132H183.203V9.97886ZM191.676 9.97886H195.999V31.9132H191.676V9.97886Z" fill="black"/>
</svg>
