<svg width="33" height="33" viewBox="0 0 33 33" fill="none" xmlns="http://www.w3.org/2000/svg">
<g clip-path="url(#clip0_1_1541)">
<path d="M18.4492 10.8175C18.4492 9.21334 17.8815 7.84355 16.7461 6.70813C15.6107 5.57271 14.2305 5.005 12.6055 5.005C11.0013 5.005 9.63151 5.57271 8.49609 6.70813C7.36068 7.84355 6.79297 9.21334 6.79297 10.8175C6.79297 12.4217 7.36068 13.7915 8.49609 14.9269C9.63151 16.0623 11.0013 16.63 12.6055 16.63C14.2305 16.63 15.6107 16.0623 16.7461 14.9269C17.8815 13.7915 18.4492 12.4217 18.4492 10.8175ZM21.3555 13.7238V16.63H25.6992V21.005H28.6055V16.63H32.9805V13.7238H28.6055V9.34875H25.6992V13.7238H21.3555ZM0.980469 25.3488V28.255H24.2617V25.3488C24.2617 24.3904 23.8346 23.5467 22.9805 22.8175C22.1263 22.0883 21.0951 21.479 19.8867 20.9894C18.6784 20.4998 17.4076 20.1404 16.0742 19.9113C14.7409 19.6613 13.5846 19.5363 12.6055 19.5363C11.6471 19.5363 10.5013 19.6613 9.16797 19.9113C7.83464 20.1404 6.55859 20.4998 5.33984 20.9894C4.12109 21.479 3.09505 22.0883 2.26172 22.8175C1.40755 23.5467 0.980469 24.3904 0.980469 25.3488Z" fill="#F9AB00"/>
</g>
<defs>
<clipPath id="clip0_1_1541">
<rect width="32" height="32" fill="white" transform="matrix(1 0 0 -1 0.980469 32.63)"/>
</clipPath>
</defs>
</svg>
