<svg width="82" height="83" viewBox="0 0 82 83" fill="none" xmlns="http://www.w3.org/2000/svg">
<path d="M81.1052 47.121C69.7169 7.34602 67.0719 -1.52319 39.0053 1.54693C3.51785 5.50396 6.01592 7.07312 0.652396 44.0509C-4.04987 76.5941 17.3308 85.3951 43.4136 82.4614C56.6388 80.9605 87.6443 69.9763 81.1052 47.121Z" fill="#EAF1FE"/>
<path d="M39.1525 70.8633C52.7461 70.8633 63.7659 69.7942 63.7659 68.4754C63.7659 67.1566 52.7461 66.0876 39.1525 66.0876C25.5589 66.0876 14.5391 67.1566 14.5391 68.4754C14.5391 69.7942 25.5589 70.8633 39.1525 70.8633Z" fill="#EAF1FE"/>
<path d="M18.45 21.49L19.2828 23.0275L20.8203 23.8603L19.2828 24.6931L18.45 26.2947L17.5531 24.6931L16.0156 23.8603L17.5531 23.0275L18.45 21.49Z" fill="#15357A"/>
<path d="M64.1902 28.1526L64.7027 29.1135L65.6637 29.626L64.7027 30.2026L64.1902 31.0995L63.6777 30.2026L62.7168 29.626L63.6777 29.1135L64.1902 28.1526Z" fill="#15357A"/>
<path d="M54.9658 62.6183H34.9143C34.1455 62.6183 33.5049 61.9777 33.5049 61.2089V23.7324C33.5049 22.9636 34.1455 22.323 34.9143 22.323H54.9658C55.7346 22.323 56.3752 22.9636 56.3752 23.7324V61.2089C56.3752 61.9777 55.7346 62.6183 54.9658 62.6183Z" fill="#EAF1FE" stroke="#15357A" stroke-width="0.75" stroke-miterlimit="10" stroke-linecap="round" stroke-linejoin="round"/>
<path d="M42.9863 26.2947H37.8613V31.4197H42.9863V26.2947Z" fill="white" stroke="#15357A" stroke-width="0.75" stroke-miterlimit="10" stroke-linecap="round" stroke-linejoin="round"/>
<path d="M51.9551 26.2947H46.8301V31.4197H51.9551V26.2947Z" fill="white" stroke="#2C71F0" stroke-width="0.75" stroke-miterlimit="10" stroke-linecap="round" stroke-linejoin="round"/>
<path d="M42.9863 34.1746H37.8613V39.2996H42.9863V34.1746Z" fill="white" stroke="#15357A" stroke-width="0.75" stroke-miterlimit="10" stroke-linecap="round" stroke-linejoin="round"/>
<path d="M51.9551 34.1746H46.8301V39.2996H51.9551V34.1746Z" fill="white" stroke="#15357A" stroke-width="0.75" stroke-miterlimit="10" stroke-linecap="round" stroke-linejoin="round"/>
<path d="M42.9219 41.99H37.7969V47.115H42.9219V41.99Z" fill="white" stroke="#15357A" stroke-width="0.75" stroke-miterlimit="10" stroke-linecap="round" stroke-linejoin="round"/>
<path d="M51.8262 41.99H46.7012V47.115H51.8262V41.99Z" fill="white" stroke="#15357A" stroke-width="0.75" stroke-miterlimit="10" stroke-linecap="round" stroke-linejoin="round"/>
<path d="M42.9219 49.9338H37.7969V55.0588H42.9219V49.9338Z" fill="white" stroke="#15357A" stroke-width="0.75" stroke-miterlimit="10" stroke-linecap="round" stroke-linejoin="round"/>
<path d="M51.8262 49.9338H46.7012V55.0588H51.8262V49.9338Z" fill="white" stroke="#15357A" stroke-width="0.75" stroke-miterlimit="10" stroke-linecap="round" stroke-linejoin="round"/>
<path d="M43.434 62.6181H20.884C20.1152 62.6181 19.4746 61.9775 19.4746 61.2088V38.5947C19.4746 37.8259 20.1152 37.1853 20.884 37.1853H43.434C44.2027 37.1853 44.8434 37.8259 44.8434 38.5947V61.1447C44.8434 61.9775 44.2027 62.6181 43.434 62.6181Z" fill="white" stroke="#15357A" stroke-width="0.75" stroke-miterlimit="10" stroke-linecap="round" stroke-linejoin="round"/>
<path d="M35.2348 55.8914H29.2129V62.6179H35.2348V55.8914Z" fill="#EAF1FE" stroke="#15357A" stroke-width="0.75" stroke-miterlimit="10" stroke-linecap="round" stroke-linejoin="round"/>
<path d="M27.3545 40.196H22.2295V45.321H27.3545V40.196Z" fill="#EAF1FE" stroke="#2C71F0" stroke-width="0.75" stroke-miterlimit="10" stroke-linecap="round" stroke-linejoin="round"/>
<path d="M34.3379 40.196H29.2129V45.321H34.3379V40.196Z" fill="#EAF1FE" stroke="#15357A" stroke-width="0.75" stroke-miterlimit="10" stroke-linecap="round" stroke-linejoin="round"/>
<path d="M41.3203 40.196H36.1953V45.321H41.3203V40.196Z" fill="#EAF1FE" stroke="#15357A" stroke-width="0.75" stroke-miterlimit="10" stroke-linecap="round" stroke-linejoin="round"/>
<path d="M27.3545 48.0759H22.2295V53.2009H27.3545V48.0759Z" fill="#EAF1FE" stroke="#15357A" stroke-width="0.75" stroke-miterlimit="10" stroke-linecap="round" stroke-linejoin="round"/>
<path d="M34.3379 48.0759H29.2129V53.2009H34.3379V48.0759Z" fill="#EAF1FE" stroke="#15357A" stroke-width="0.75" stroke-miterlimit="10" stroke-linecap="round" stroke-linejoin="round"/>
<path d="M41.3203 48.0759H36.1953V53.2009H41.3203V48.0759Z" fill="#EAF1FE" stroke="#15357A" stroke-width="0.75" stroke-miterlimit="10" stroke-linecap="round" stroke-linejoin="round"/>
</svg>
