<svg width="23" height="20" viewBox="0 0 23 20" fill="none" xmlns="http://www.w3.org/2000/svg">
<path d="M11.3281 6.88501L14.5156 10.0256V9.88501C14.5156 9.04126 14.2266 8.33032 13.6484 7.7522C13.0703 7.17407 12.3594 6.88501 11.5156 6.88501H11.3281ZM7.0625 7.68188L8.60938 9.22876C8.54688 9.44751 8.51562 9.66626 8.51562 9.88501C8.51562 10.7288 8.80469 11.4397 9.38281 12.0178C9.96094 12.5959 10.6719 12.885 11.5156 12.885C11.7344 12.885 11.9531 12.8538 12.1719 12.7913L13.7188 14.3381C13 14.7131 12.2656 14.9006 11.5156 14.9006C10.6094 14.9006 9.77344 14.6741 9.00781 14.2209C8.24219 13.7678 7.63281 13.1584 7.17969 12.3928C6.72656 11.6272 6.5 10.7913 6.5 9.88501C6.5 9.13501 6.6875 8.40063 7.0625 7.68188ZM1.53125 2.15063L3.78125 4.44751L4.25 4.86938C2.53125 6.24438 1.28125 7.91626 0.5 9.88501C1.375 12.1038 2.8125 13.9084 4.8125 15.2991C6.8125 16.6897 9.04688 17.385 11.5156 17.385C13.0469 17.385 14.5 17.1038 15.875 16.5413L19.25 19.8694L20.5156 18.6038L2.79688 0.88501L1.53125 2.15063ZM11.5156 4.86938C12.4219 4.86938 13.2578 5.09595 14.0234 5.54907C14.7891 6.0022 15.3984 6.61157 15.8516 7.3772C16.3047 8.14282 16.5312 8.97876 16.5312 9.88501C16.5312 10.51 16.4062 11.1194 16.1562 11.7131L19.0625 14.6194C20.625 13.3381 21.7812 11.76 22.5312 9.88501C21.6562 7.66626 20.2188 5.86157 18.2188 4.47095C16.2188 3.08032 13.9844 2.38501 11.5156 2.38501C10.1406 2.38501 8.8125 2.61938 7.53125 3.08813L9.6875 5.24438C10.2812 4.99438 10.8906 4.86938 11.5156 4.86938Z" fill="black" fill-opacity="0.54"/>
</svg>
