<svg width="33" height="33" viewBox="0 0 33 33" fill="none" xmlns="http://www.w3.org/2000/svg">
<g clip-path="url(#clip0_1_1532)">
<path d="M24.251 0.630005H3.87598C3.08431 0.630005 2.40723 0.916464 1.84473 1.48938C1.28223 2.0623 1.00098 2.74459 1.00098 3.53625L0.969727 22.3488C0.969727 22.8488 1.08952 23.3123 1.3291 23.7394C1.56868 24.1665 1.87598 24.505 2.25098 24.755L14.0635 32.63L25.8447 24.755C26.2406 24.505 26.5531 24.1665 26.7822 23.7394C27.0114 23.3123 27.126 22.8488 27.126 22.3488L27.1572 3.53625C27.1572 2.74459 26.8708 2.0623 26.2979 1.48938C25.7249 0.916464 25.0426 0.630005 24.251 0.630005ZM11.1572 22.4425L3.87598 15.1613L5.93848 13.13L11.1572 18.3175L22.1885 7.28625L24.251 9.34875L11.1572 22.4425Z" fill="#E44C7D"/>
</g>
<defs>
<clipPath id="clip0_1_1532">
<rect width="32" height="32" fill="white" transform="matrix(1 0 0 -1 0.969727 32.63)"/>
</clipPath>
</defs>
</svg>
