<svg width="42" height="42" viewBox="0 0 42 42" fill="none" xmlns="http://www.w3.org/2000/svg">
    <path
        d="M20.1571 11.4259C23.2911 11.4259 25.8317 8.86811 25.8317 5.71294C25.8317 2.55777 23.2911 0 20.1571 0C17.0231 0 14.4824 2.55777 14.4824 5.71294C14.4824 8.86811 17.0231 11.4259 20.1571 11.4259Z"
        fill="#085C60" />
    <path
        d="M4.61918 17.7404C7.17028 17.7404 9.23835 15.6583 9.23835 13.09C9.23835 10.5217 7.17028 8.4397 4.61918 8.4397C2.06808 8.4397 0 10.5217 0 13.09C0 15.6583 2.06808 17.7404 4.61918 17.7404Z"
        fill="#085C60" />
    <path
        d="M17.3172 39.7144C14.4368 37.9662 6.56172 32.6425 2.74493 24.6406C1.18604 21.373 2.34397 20.3673 3.85094 18.6192C4.90085 18.923 6.06156 18.8558 7.12306 18.3424C8.1855 17.8291 8.96332 16.9592 9.38421 15.9447C9.8751 15.9251 10.3294 15.8976 10.7563 15.8971C10.6932 16.3862 10.6617 16.9191 10.6617 17.5043C10.6617 22.289 11.7682 27.4331 13.9496 32.7937C15.0603 35.5218 16.2859 37.8897 17.32 39.698C17.3191 39.7027 17.3177 39.7092 17.3172 39.7144Z"
        fill="#085C60" />
    <path
        d="M11.9805 17.5032C11.9805 13.0498 13.7938 12.5561 16.386 11.4263C17.3886 12.3246 18.7088 12.8715 20.1573 12.8715C21.6059 12.8715 22.9256 12.3251 23.9287 11.4263C26.5208 12.5561 28.3342 13.0503 28.3342 17.5032C28.3342 28.4092 22.425 38.5214 20.1573 42C17.8901 38.5214 11.9805 28.4097 11.9805 17.5032Z"
        fill="#085C60" />
    <path
        d="M37.5692 24.6405C33.7529 32.6429 25.8778 37.9662 22.9969 39.7143C22.9965 39.7083 22.9955 39.7027 22.9941 39.6966C24.0274 37.8883 25.2539 35.5204 26.3645 32.7922C28.5464 27.4316 29.6524 22.2876 29.6524 17.5028C29.6524 16.9176 29.6204 16.3847 29.5579 15.8956C29.9848 15.8956 30.4386 15.9236 30.9299 15.9432C31.3508 16.9582 32.1287 17.8276 33.1911 18.341C34.2535 18.8543 35.4133 18.9215 36.4632 18.6177C37.9702 20.3672 39.1281 21.3734 37.5692 24.6405Z"
        fill="#085C60" />
    <path
        d="M35.6963 17.7404C38.2474 17.7404 40.3155 15.6583 40.3155 13.09C40.3155 10.5217 38.2474 8.4397 35.6963 8.4397C33.1452 8.4397 31.0771 10.5217 31.0771 13.09C31.0771 15.6583 33.1452 17.7404 35.6963 17.7404Z"
        fill="#085C60" />
</svg>