<svg width="37" height="36" viewBox="0 0 37 36" fill="none" xmlns="http://www.w3.org/2000/svg">
<path d="M4.03682 21.6634V4.79707C4.03682 3.92186 4.37592 3.08249 4.97953 2.46362C5.58314 1.84475 6.4018 1.49707 7.25543 1.49707H29.142C29.9957 1.49707 30.8143 1.84475 31.4179 2.46362C32.0215 3.08249 32.3606 3.92186 32.3606 4.79707V21.6634M4.03682 21.6634H32.3606M4.03682 21.6634L1.65504 30.2995C1.51977 30.7902 1.49724 31.3063 1.58922 31.8074C1.6812 32.3085 1.88519 32.781 2.18519 33.1877C2.48518 33.5944 2.87301 33.9242 3.31825 34.1514C3.76349 34.3786 4.25402 34.4969 4.75135 34.4971H31.6461C32.1434 34.4969 32.634 34.3786 33.0792 34.1514C33.5244 33.9242 33.9123 33.5944 34.2123 33.1877C34.5123 32.781 34.7163 32.3085 34.8082 31.8074C34.9002 31.3063 34.8777 30.7902 34.7424 30.2995L32.3606 21.6634" stroke="#085C60" stroke-width="2.5"/>
</svg>
